# xmcd CD database file
#
# Track frame offsets:
#	150
#	20127
#	37358
#	56662
#	73526
#	91208
#	105363
#	124837
#	141711
#	162722
#	177526
#	193799
#	207376
#
# Disc length: 2980 seconds
#
# Revision: 0
# Processed by: cddbd v1.5.2PL0 Copyright (c) Steve Scherf et al.
# Submitted via: CDex 1.70beta2
#
DISCID=d10ba20d
DTITLE=Me and Mr Jones - Murder
DYEAR=2014
DGENRE=Jazz
TTITLE0=Murder
TTITLE1=I Get Along Without You Very Well
TTITLE2=Comes Love
TTITLE3=Bitter Blue
TTITLE4=River Man
TTITLE5=Everything I've Got
TTITLE6=Starts Fell on Alabama
TTITLE7=Dad's Song
TTITLE8=A Foggy Dat
TTITLE9=Baby's Eyes (Live)
TTITLE10=Tango Slow (Live)
TTITLE11=Nobody Knows (Live)
TTITLE12=Baby's Eyes (Deepest Blue, Live)
EXTD=YEAR: 2014
EXTT0=
EXTT1=
EXTT2=
EXTT3=
EXTT4=
EXTT5=
EXTT6=
EXTT7=
EXTT8=
EXTT9=
EXTT10=
EXTT11=
EXTT12=
PLAYORDER=
